<?xml version="1.0" encoding="UTF-8"?><svg id="Layer_1" xmlns="http://www.w3.org/2000/svg" viewBox="0 0 1920 146.88"><defs><style>.cls-1{fill:#fff;}.cls-2{fill:#eee;}</style></defs><path class="cls-1" d="M1.47,.03H1919.96V145.91c-.64,0-1.28,.04-1.89-.24-3.57-1.61-7.36-2.63-11.03-3.94-13.36-4.78-26.79-9.35-40.19-14.02-5.8-2.02-11.57-4.09-17.37-6.11-10.16-3.54-20.33-7.06-30.49-10.59-6.32-2.2-12.62-4.45-18.95-6.62-3.09-1.06-6.19-2.14-9.34-2.95-12.24-3.16-24.51-6.2-36.84-9.02-5.03-1.15-10.07-2.32-15.12-3.38-7.69-1.62-15.4-3.17-23.1-4.71-5.14-1.03-10.28-2.02-15.44-2.96-5.23-.96-10.47-1.86-15.71-2.76-4.07-.7-8.13-1.46-12.21-2.01-4.01-.54-7.98-1.37-11.99-1.83-2.69-.3-5.32-.89-8.02-1.14-2.92-.27-5.8-.88-8.7-1.28-3.85-.54-7.71-1.05-11.57-1.52-3.15-.38-6.34-.53-9.46-1.06-4.78-.81-9.61-1.24-14.41-1.72-3.87-.39-7.73-.91-11.62-1.17-1.89-.13-3.85-.04-5.69-.47-2.51-.59-5.06-.47-7.58-.74-2.75-.29-5.57-.42-8.32-.7-4.98-.51-9.98-.78-14.96-1.22-4.9-.43-9.83-.73-14.75-.98-6.36-.33-12.72-.51-19.08-.98-4.13-.31-8.29-.33-12.42-.38-8.54-.11-17.07-.73-25.62-.6-14.22,.22-28.43-.31-42.66,.34-7.96,.36-15.95,.49-23.93,.6-4.46,.06-8.9,.75-13.38,.49-.16,0-.32,0-.48,.03-3.91,.94-7.93,.4-11.89,.78-3.7,.36-7.45,.93-11.21,.62-.16-.01-.32,0-.48,.04-3.2,.78-6.49,.48-9.73,.82-2.75,.29-5.54,.53-8.32,.7-1.97,.12-4.02,0-5.93,.45-2.43,.57-4.91,.48-7.35,.73-2.59,.26-5.22,.54-7.84,.7-2.05,.13-4.16,.1-6.17,.51-2.51,.51-5.06,.47-7.58,.72-2.6,.26-5.25,.42-7.84,.7-4.26,.47-8.54,.84-12.8,1.21-4.59,.4-9.17,.95-13.78,1.16-1.96,.09-4.01,.06-5.93,.5-2.43,.56-4.91,.45-7.35,.71-2.59,.27-5.22,.56-7.84,.72-1.97,.12-4.01,.05-5.93,.49-2.43,.56-4.91,.45-7.35,.71-2.59,.27-5.22,.56-7.84,.72-1.97,.12-4.01,.05-5.93,.49-2.43,.56-4.91,.46-7.35,.71-2.59,.27-5.22,.56-7.84,.72-1.97,.12-4.01,.05-5.93,.49-2.43,.56-4.91,.46-7.35,.71-2.59,.27-5.22,.56-7.84,.72-1.97,.12-3.99,.11-5.93,.47-2.91,.53-5.85,.5-8.77,.8-2.45,.25-4.91,.46-7.36,.68-1.82,.17-3.67,.08-5.46,.42-2.74,.53-5.53,.56-8.29,.81-2.45,.22-4.92,.46-7.36,.68-1.82,.16-3.67,.08-5.46,.42-2.74,.52-5.53,.58-8.29,.81-2.45,.21-4.92,.46-7.36,.68-1.82,.16-3.67,.09-5.46,.42-2.74,.52-5.53,.59-8.29,.81-2.46,.2-4.92,.46-7.36,.68-1.82,.16-3.67,.09-5.46,.42-2.74,.52-5.53,.59-8.29,.81-2.46,.19-4.92,.43-7.36,.68-1.98,.2-4.02,0-5.94,.44-2.51,.59-5.07,.48-7.58,.74-2.59,.27-5.22,.54-7.84,.72-1.89,.13-3.85,.03-5.69,.46-2.51,.58-5.07,.49-7.58,.74-2.6,.26-5.22,.54-7.84,.72-1.89,.12-3.85,.03-5.69,.46-2.51,.58-5.06,.5-7.58,.74-2.6,.25-5.22,.54-7.84,.71-1.89,.12-3.85,.04-5.69,.46-2.51,.57-5.06,.51-7.58,.74-2.6,.25-5.22,.54-7.84,.71-1.89,.12-3.85,.04-5.69,.46-2.51,.56-5.06,.51-7.58,.75-2.76,.26-5.57,.41-8.32,.7-4.42,.48-8.86,.74-13.28,1.22-4.18,.45-8.39,.72-12.59,.98-4.68,.29-9.36,.76-14.04,.93-4.46,.16-8.9,.89-13.38,.58-.32-.02-.66-.05-.96,.02-4.07,1.03-8.25,.2-12.38,.83-3.83,.58-7.78,.12-11.69,.47-4.91,.45-9.87,.05-14.81,.53-4.12,.4-8.26-.02-12.42,.42-4.74,.5-9.55,.02-14.34,.52-4.35,.45-8.74-.05-13.14,.45-4.58,.52-9.23-.01-13.86,.5-4.34,.48-8.74,0-13.14,.46-4.74,.5-9.55-.03-14.34,.5-4.26,.48-8.58,.03-12.9,.44-4.98,.48-10.03,.03-15.05,.53-4.04,.41-8.1,0-12.18,.43-4.74,.5-9.55,.02-14.34,.52-4.35,.46-8.74-.03-13.14,.44-4.66,.5-9.39,.01-14.1,.51-4.43,.46-8.91-.05-13.38,.46-4.5,.51-9.06,0-13.62,.49-4.58,.5-9.23-.03-13.86,.47-4.5,.49-9.07,0-13.62,.49-4.5,.49-9.07,.19-13.62,.42-7.08,.36-14.2,.57-21.29,.54-24.38-.09-48.76,.63-73.13-.41-4.62-.2-9.23,.1-13.87-.38-4.66-.48-9.39-.33-14.09-.47-5.42-.16-10.82-.86-16.26-.6-.16,0-.32,0-.48-.02-4.82-.67-9.68-.57-14.52-.95-3.18-.25-6.35-.57-9.54-.49-.08,0-.16-.02-.24-.04-3.12-.77-6.33-.53-9.49-.8-3.08-.26-6.18-.55-9.28-.71-2.04-.1-4.17-.01-6.17-.45-2.67-.59-5.38-.45-8.06-.74-2.59-.28-5.22-.54-7.84-.72-1.89-.13-3.82-.15-5.7-.43-4.32-.63-8.69-.82-13.01-1.41-2.14-.29-4.28-.31-6.42-.54-3.55-.39-7.08-.85-10.62-1.33-2.05-.28-4.15-.27-6.16-.61-4.54-.78-9.14-1.07-13.69-1.75-2.9-.44-5.82-.76-8.74-1.09-4.1-.45-8.16-1.2-12.24-1.78-4.87-.69-9.76-1.29-14.62-2.01-4.71-.7-9.38-1.62-14.09-2.27-5.43-.75-10.8-1.78-16.22-2.56-6.04-.87-12.03-2.12-18.04-3.22-7.18-1.31-14.38-2.54-21.54-3.99-9.57-1.95-19.14-3.92-28.7-5.92-14.23-2.99-28.41-6.22-42.54-9.62-10.52-2.53-21.01-5.18-31.48-7.88-8.09-2.08-16.15-4.24-24.2-6.48-7.74-2.16-15.44-4.47-23.17-6.69-10.17-2.92-20.36-5.8-30.53-8.71-7.12-2.03-14.22-4.09-21.34-6.13-10.1-2.89-20.21-5.74-30.3-8.66-6.5-1.88-13.03-3.66-19.5-5.64-6.47-1.98-13.02-3.68-19.52-5.54-5.28-1.51-10.54-3.08-15.82-4.59C15.98,4.8,9.16,2.89,2.34,.98c-.55-.15-.82-.42-.87-.96Z"/><path class="cls-2" d="M1920,146.88H0V0S243.4,102.34,581.44,111.28c10.96,.29,21.92,.73,32.87,.43l220.58-6.13c171.1-4.59,354.95-26.97,517.86-40.44,118.36-9.78,224.83-7.52,354.11,14.69,37.62,6.46,74.6,16.25,110.5,29.19l102.63,37.86Z"/><path class="cls-1" d="M.51,.03L.03,.5C-.07,.09,.09-.07,.51,.03Z"/></svg>